<svg id="Layer_1" data-name="Layer 1" xmlns="http://www.w3.org/2000/svg" xmlns:xlink="http://www.w3.org/1999/xlink" viewBox="0 0 600 375"><defs><style>.cls-1,.cls-5{fill:url(#linear-gradient);}.cls-1{clip-rule:evenodd;}.cls-2,.cls-4{fill:#679e63;}.cls-3{fill:#333;}.cls-3,.cls-4,.cls-5{fill-rule:evenodd;}.cls-6{clip-path:url(#clip-path);}.cls-7{fill:none;}.cls-8{fill:url(#linear-gradient-3);}.cls-9{fill:url(#linear-gradient-4);}.cls-10{fill:url(#linear-gradient-5);}.cls-11{fill:url(#linear-gradient-6);}.cls-12{fill:url(#linear-gradient-7);}.cls-13{fill:url(#linear-gradient-8);}</style><linearGradient id="linear-gradient" x1="246.18" y1="115.56" x2="195.5" y2="218.95" gradientUnits="userSpaceOnUse"><stop offset="0" stop-color="#3f873f"/><stop offset="0.33" stop-color="#3f8b3d"/><stop offset="0.64" stop-color="#3e9637"/><stop offset="0.93" stop-color="#3da92e"/><stop offset="1" stop-color="#3dae2b"/></linearGradient><clipPath id="clip-path"><path class="cls-1" d="M226.76,91.45a6.77,6.77,0,0,0-6.77,0l-56.1,32.37a6.77,6.77,0,0,0-3.39,5.87v64.8a6.77,6.77,0,0,0,3.39,5.87l56.1,32.4a6.79,6.79,0,0,0,6.78,0l56.08-32.4a6.77,6.77,0,0,0,3.39-5.87v-64.8a6.77,6.77,0,0,0-3.39-5.87Z"/></clipPath><linearGradient id="linear-gradient-3" x1="214.83" y1="169.67" x2="357.04" y2="64.6" gradientUnits="userSpaceOnUse"><stop offset="0.14" stop-color="#3f873f"/><stop offset="0.4" stop-color="#529f44"/><stop offset="0.71" stop-color="#63b649"/><stop offset="0.91" stop-color="#6abf4b"/></linearGradient><linearGradient id="linear-gradient-4" x1="158.51" y1="79.77" x2="288.23" y2="79.77" gradientUnits="userSpaceOnUse"><stop offset="0.09" stop-color="#6abf4b"/><stop offset="0.29" stop-color="#63b649"/><stop offset="0.6" stop-color="#529f44"/><stop offset="0.86" stop-color="#3f873f"/></linearGradient><linearGradient id="linear-gradient-5" x1="158.51" y1="162.08" x2="288.23" y2="162.08" xlink:href="#linear-gradient-4"/><linearGradient id="linear-gradient-6" x1="158.51" y1="199.11" x2="288.23" y2="199.11" xlink:href="#linear-gradient-4"/><linearGradient id="linear-gradient-7" x1="158.51" y1="215.84" x2="288.23" y2="215.84" xlink:href="#linear-gradient-4"/><linearGradient id="linear-gradient-8" x1="307.12" y1="112.49" x2="227.13" y2="275.69" xlink:href="#linear-gradient"/></defs><path class="cls-2" d="M297.11,368.85a11.21,11.21,0,0,1-5.58-1.49l-17.76-10.51c-2.65-1.48-1.35-2-.48-2.31a35.48,35.48,0,0,0,8-3.66,1.39,1.39,0,0,1,1.32.1l13.65,8.1a1.71,1.71,0,0,0,1.64,0l53.2-30.7a1.68,1.68,0,0,0,.81-1.44V265.56a1.72,1.72,0,0,0-.83-1.47l-53.17-30.68a1.71,1.71,0,0,0-1.64,0L243.15,264.1a1.7,1.7,0,0,0-.85,1.46v61.38a1.62,1.62,0,0,0,.84,1.42l14.57,8.42c7.91,4,12.75-.7,12.75-5.38V270.79a1.53,1.53,0,0,1,1.55-1.53h6.74a1.54,1.54,0,0,1,1.54,1.53V331.4c0,10.56-5.74,16.61-15.75,16.61-3.07,0-5.49,0-12.25-3.33l-13.95-8a11.26,11.26,0,0,1-5.58-9.71V265.56a11.22,11.22,0,0,1,5.58-9.7l53.19-30.74a11.68,11.68,0,0,1,11.18,0l53.19,30.74a11.22,11.22,0,0,1,5.59,9.7v61.38a11.27,11.27,0,0,1-5.59,9.71l-53.19,30.71A11.2,11.2,0,0,1,297.11,368.85Z"/><path class="cls-2" d="M313.54,326.56c-23.27,0-28.15-10.69-28.15-19.65a1.53,1.53,0,0,1,1.54-1.53h6.87a1.54,1.54,0,0,1,1.53,1.3c1,7,4.14,10.54,18.21,10.54,11.21,0,16-2.54,16-8.48,0-3.43-1.35-6-18.77-7.68-14.55-1.44-23.55-4.66-23.55-16.3,0-10.73,9-17.13,24.21-17.13,17,0,25.47,5.91,26.54,18.6a1.54,1.54,0,0,1-.41,1.19,1.57,1.57,0,0,1-1.12.49h-6.91A1.54,1.54,0,0,1,328,286.7c-1.65-7.36-5.68-9.72-16.61-9.72-12.24,0-13.66,4.27-13.66,7.46,0,3.87,1.68,5,18.2,7.18,16.35,2.16,24.11,5.22,24.11,16.71S330.4,326.56,313.54,326.56Z"/><path class="cls-2" d="M390.24,262.18A10.25,10.25,0,1,1,380,251.93,10.28,10.28,0,0,1,390.24,262.18Zm-18.84,0a8.6,8.6,0,1,0,8.57-8.57A8.6,8.6,0,0,0,371.4,262.15Zm4.74-5.72h4c1.36,0,4,0,4,3a2.65,2.65,0,0,1-2.18,2.82c1.58.11,1.69,1.14,1.9,2.6a11.43,11.43,0,0,0,.6,3H382c-.06-.54-.44-3.47-.44-3.63-.15-.66-.38-1-1.19-1h-2v4.61h-2.23Zm2.17,5h1.79a1.55,1.55,0,0,0,1.74-1.62c0-1.58-1.09-1.58-1.68-1.58h-1.85Z"/><path class="cls-3" d="M132.39,128.68a6.81,6.81,0,0,0-3.4-5.92L72.59,90.3a6.57,6.57,0,0,0-3.1-.89H68.9a6.68,6.68,0,0,0-3.11.89L9.39,122.76A6.84,6.84,0,0,0,6,128.68l.13,87.39A3.33,3.33,0,0,0,7.81,219a3.26,3.26,0,0,0,3.38,0l33.52-19.19a6.86,6.86,0,0,0,3.41-5.91V153.08a6.78,6.78,0,0,1,3.4-5.89L65.79,139a6.69,6.69,0,0,1,3.41-.92,6.62,6.62,0,0,1,3.39.92l14.27,8.22a6.78,6.78,0,0,1,3.4,5.89v40.83a6.87,6.87,0,0,0,3.42,5.91L127.18,219a3.31,3.31,0,0,0,3.41,0,3.38,3.38,0,0,0,1.69-2.94Z"/><path class="cls-3" d="M403.75,8.54a3.41,3.41,0,0,0-5.07,3V98.06a2.39,2.39,0,0,1-1.19,2.07,2.36,2.36,0,0,1-2.38,0L381,92a6.84,6.84,0,0,0-6.81,0l-56.41,32.56a6.82,6.82,0,0,0-3.41,5.9v65.13a6.81,6.81,0,0,0,3.4,5.9l56.42,32.59a6.79,6.79,0,0,0,6.81,0l56.43-32.59a6.79,6.79,0,0,0,3.4-5.9V33.23a6.8,6.8,0,0,0-3.49-5.95Zm-5.24,165.64a1.71,1.71,0,0,1-.85,1.48l-19.37,11.16a1.67,1.67,0,0,1-1.7,0l-19.37-11.16a1.71,1.71,0,0,1-.85-1.48V151.82a1.71,1.71,0,0,1,.85-1.48l19.37-11.19a1.72,1.72,0,0,1,1.7,0l19.37,11.19a1.71,1.71,0,0,1,.85,1.48Z"/><path class="cls-3" d="M591.61,151.23a6.81,6.81,0,0,0,3.39-5.89V129.56a6.79,6.79,0,0,0-3.39-5.89L535.55,91.12a6.79,6.79,0,0,0-6.82,0l-56.4,32.56a6.81,6.81,0,0,0-3.41,5.9v65.11a6.82,6.82,0,0,0,3.44,5.92l56,31.94a6.82,6.82,0,0,0,6.68,0L569,213.73a3.41,3.41,0,0,0,0-5.93l-56.75-32.57a3.41,3.41,0,0,1-1.71-3V151.86a3.42,3.42,0,0,1,1.7-3l17.66-10.18a3.41,3.41,0,0,1,3.41,0L551,148.91a3.42,3.42,0,0,1,1.7,3v16.06a3.42,3.42,0,0,0,5.12,3Z"/><path class="cls-4" d="M531.31,148.18a1.33,1.33,0,0,1,1.31,0l10.82,6.25a1.28,1.28,0,0,1,.65,1.13v12.5a1.28,1.28,0,0,1-.65,1.13l-10.82,6.25a1.33,1.33,0,0,1-1.31,0l-10.82-6.25a1.3,1.3,0,0,1-.65-1.13v-12.5a1.3,1.3,0,0,1,.65-1.13Z"/><path class="cls-5" d="M226.76,91.45a6.77,6.77,0,0,0-6.77,0l-56.1,32.37a6.77,6.77,0,0,0-3.39,5.87v64.8a6.77,6.77,0,0,0,3.39,5.87l56.1,32.4a6.79,6.79,0,0,0,6.78,0l56.08-32.4a6.77,6.77,0,0,0,3.39-5.87v-64.8a6.77,6.77,0,0,0-3.39-5.87Z"/><g class="cls-6"><path class="cls-7" d="M219.87,91.45l-56.22,32.37a7,7,0,0,0-3.62,5.87v64.8a6.51,6.51,0,0,0,1.75,4.31l63.16-108A6.87,6.87,0,0,0,219.87,91.45Z"/><path class="cls-7" d="M225.26,233.42a6.79,6.79,0,0,0,1.58-.66L283,200.36a6.91,6.91,0,0,0,3.53-5.87v-64.8a6.69,6.69,0,0,0-2-4.71Z"/><path class="cls-8" d="M283,123.82,226.7,91.45a6.54,6.54,0,0,0-1.76-.7L161.78,198.8a7.46,7.46,0,0,0,1.89,1.56L220,232.76a6.87,6.87,0,0,0,5.24.66L284.47,125A7.48,7.48,0,0,0,283,123.82Z"/><path class="cls-7" d="M286.52,194.49v-64.8a6.94,6.94,0,0,0-3.56-5.87L226.7,91.45a6.65,6.65,0,0,0-2.06-.76l61.67,105.36A6.3,6.3,0,0,0,286.52,194.49Z"/><path class="cls-7" d="M163.65,123.82a7,7,0,0,0-3.62,5.87v64.8a7,7,0,0,0,3.64,5.87L220,232.76a6.82,6.82,0,0,0,4.34.84L164,123.63Z"/><polygon class="cls-9" points="218.12 79.55 217.35 79.99 218.38 79.99 218.12 79.55"/><path class="cls-10" d="M283,200.36a7.09,7.09,0,0,0,3.32-4.31L224.64,90.69a6.86,6.86,0,0,0-4.77.76L164,123.63l60.37,110a6.64,6.64,0,0,0,2.48-.84Z"/><polygon class="cls-11" points="288.23 199.32 287.85 198.68 287.85 199.53 288.23 199.32"/><path class="cls-12" d="M283,200.36l-56.15,32.4a6.64,6.64,0,0,1-2.48.84l1.12,2,62.37-36.11v-.85l-1.54-2.63A7.09,7.09,0,0,1,283,200.36Z"/><path class="cls-13" d="M283,200.36l-56.15,32.4a6.64,6.64,0,0,1-2.48.84l1.12,2,62.37-36.11v-.85l-1.54-2.63A7.09,7.09,0,0,1,283,200.36Z"/></g></svg>